<svg width="600" height="600" viewBox="0 0 600 600" fill="none" xmlns="http://www.w3.org/2000/svg">
<path fill-rule="evenodd" clip-rule="evenodd" d="M500 55.1333V64.8333C478.71 78.169 458.996 93.8687 441.233 111.633L343.1 209.767C337.028 216.053 333.668 224.473 333.744 233.213C333.82 241.953 337.326 250.314 343.506 256.494C349.686 262.674 358.047 266.18 366.787 266.256C375.527 266.332 383.947 262.972 390.233 256.9L488 159.167C505.86 141.291 521.628 121.441 535 100H544.867L541.867 113C536.191 137.596 533.328 162.758 533.333 188V216.567C533.333 225.407 536.845 233.886 543.096 240.137C549.348 246.388 557.826 249.9 566.667 249.9C575.507 249.9 583.986 246.388 590.237 240.137C596.488 233.886 600 225.407 600 216.567V50.1C600 36.8392 594.732 24.1215 585.355 14.7447C575.978 5.36784 563.261 0.100001 550 0.100001L383.333 0C374.493 0 366.014 3.51189 359.763 9.76311C353.512 16.0143 350 24.4928 350 33.3333C350 42.1739 353.512 50.6523 359.763 56.9036C366.014 63.1548 374.493 66.6667 383.333 66.6667H412.033C437.265 66.6686 462.415 63.8059 487 58.1333L500 55.1333ZM65 500C78.3734 478.56 94.1414 458.71 112 440.833L209.767 343.1C216.053 337.028 224.473 333.668 233.213 333.744C241.953 333.82 250.314 337.326 256.494 343.506C262.674 349.686 266.18 358.047 266.256 366.787C266.332 375.527 262.972 383.947 256.9 390.233L158.767 488.367C141.004 506.132 121.29 521.831 100 535.167V544.867L113 541.867C137.596 536.191 162.758 533.328 188 533.333H216.667C225.507 533.333 233.986 536.845 240.237 543.096C246.488 549.348 250 557.826 250 566.667C250 575.507 246.488 583.986 240.237 590.237C233.986 596.488 225.507 600 216.667 600L50 599.9C36.7392 599.9 24.0215 594.632 14.6447 585.255C5.26784 575.879 0 563.161 0 549.9V383.333C0 374.493 3.51189 366.014 9.76311 359.763C16.0143 353.512 24.4928 350 33.3333 350C42.1739 350 50.6523 353.512 56.9036 359.763C63.1548 366.014 66.6667 374.493 66.6667 383.333V412.033C66.6686 437.265 63.8059 462.415 58.1333 487L55.1333 500H65Z" fill="white"/>
</svg>
