<svg width="763" height="700" viewBox="0 0 763 700" fill="none" xmlns="http://www.w3.org/2000/svg">
<path d="M468.75 562.5C624.08 562.5 750 436.58 750 281.25C750 125.92 624.08 0 468.75 0C313.42 0 187.5 125.92 187.5 281.25C187.5 436.58 313.42 562.5 468.75 562.5Z" fill="#F2E05C"/>
<path d="M649.063 481.25H565.312V565H649.063V481.25Z" fill="#E7D1C4" stroke="#4C241D" stroke-width="25" stroke-linecap="round" stroke-linejoin="round"/>
<path d="M586.25 523.125H188.438V687.5H586.25V523.125Z" fill="#E7D1C4" stroke="#4C241D" stroke-width="25" stroke-linecap="round" stroke-linejoin="round"/>
<path d="M711.875 585.938H586.25V687.5H711.875V585.938Z" fill="#E7D1C4" stroke="#4C241D" stroke-width="25" stroke-linecap="round" stroke-linejoin="round"/>
<path d="M188.438 585.938H62.8125V687.5H188.438V585.938Z" fill="#E7D1C4" stroke="#4C241D" stroke-width="25" stroke-linecap="round" stroke-linejoin="round"/>
<path d="M37.5 587.5H187.5" stroke="#4C241D" stroke-width="25" stroke-linecap="round" stroke-linejoin="round"/>
<path d="M586.25 585.938H732.812" stroke="#4C241D" stroke-width="25" stroke-linecap="round" stroke-linejoin="round"/>
<path d="M687.5 537.5H587.5V587.5H687.5V537.5Z" fill="#E7D1C4" stroke="#4C241D" stroke-width="25" stroke-linecap="round" stroke-linejoin="round"/>
<path d="M188.438 150H87.5V587.5H188.438V150Z" fill="#E7D1C4" stroke="#4C241D" stroke-width="25" stroke-linecap="round" stroke-linejoin="round"/>
<path d="M75 250H212.5" stroke="#4C241D" stroke-width="25" stroke-linecap="round" stroke-linejoin="round"/>
<path d="M562.5 412.5H237.5V523.125H562.5V412.5Z" fill="#A9BA5A" stroke="#4C241D" stroke-width="25" stroke-linecap="round" stroke-linejoin="round"/>
<path d="M562.5 462.5H237.5V525H562.5V462.5Z" fill="#E7D1C4" stroke="#4C241D" stroke-width="25" stroke-linecap="round" stroke-linejoin="round"/>
<path d="M562.5 387.5V525" stroke="#4C241D" stroke-width="25" stroke-linecap="round" stroke-linejoin="round"/>
<path d="M237.5 387.5V525" stroke="#4C241D" stroke-width="25" stroke-linecap="round" stroke-linejoin="round"/>
<path d="M237.5 437.5H188.438V525H237.5V437.5Z" fill="#E7D1C4" stroke="#4C241D" stroke-width="25" stroke-linecap="round" stroke-linejoin="round"/>
<path d="M237.5 437.5H187.5V475H237.5V437.5Z" fill="#A9BA5A" stroke="#4C241D" stroke-width="25" stroke-linecap="round" stroke-linejoin="round"/>
<path d="M670 487.5H562.5V437.5H627L670 487.5Z" fill="#A9BA5A" stroke="#4C241D" stroke-width="25" stroke-linecap="round" stroke-linejoin="round"/>
<path d="M475 287.5H312.5V525H475V287.5Z" fill="#E7D1C4" stroke="#4C241D" stroke-width="25" stroke-linecap="round" stroke-linejoin="round"/>
<path d="M137.863 62.5L137.6 62.6125C123.239 68.1939 110.835 77.8716 101.928 90.4431C93.0211 103.015 88.004 117.926 87.5 133.325V150H187.5V133.012C187.005 117.699 182.042 102.865 173.222 90.3359C164.403 77.8073 152.112 68.1315 137.863 62.5Z" fill="#BF7E68" stroke="#4C241D" stroke-width="25" stroke-linecap="round" stroke-linejoin="round"/>
<path d="M137.5 287.5V312.5" stroke="#4C241D" stroke-width="25" stroke-linecap="round" stroke-linejoin="round"/>
<path d="M137.5 187.5V212.5" stroke="#4C241D" stroke-width="25" stroke-linecap="round" stroke-linejoin="round"/>
<path d="M137.5 350V375" stroke="#4C241D" stroke-width="25" stroke-linecap="round" stroke-linejoin="round"/>
<path d="M137.5 412.5V437.5" stroke="#4C241D" stroke-width="25" stroke-linecap="round" stroke-linejoin="round"/>
<path d="M137.5 475V500" stroke="#4C241D" stroke-width="25" stroke-linecap="round" stroke-linejoin="round"/>
<path d="M188.438 648.75H586.25" stroke="#4C241D" stroke-width="25" stroke-linecap="round" stroke-linejoin="round"/>
<path d="M314.062 525C314.062 490.488 350.088 462.5 394.525 462.5C438.963 462.5 475 490.488 475 525H314.062Z" stroke="#4C241D" stroke-width="25" stroke-linecap="round" stroke-linejoin="round"/>
<path d="M312.5 412.5H362.5V387.5H425V412.5H462.5" stroke="#4C241D" stroke-width="25" stroke-linecap="round" stroke-linejoin="round"/>
<path d="M350 325V337.5" stroke="#4C241D" stroke-width="25" stroke-linecap="round" stroke-linejoin="round"/>
<path d="M437.5 325V337.5" stroke="#4C241D" stroke-width="25" stroke-linecap="round" stroke-linejoin="round"/>
<path d="M400 325V337.5" stroke="#4C241D" stroke-width="25" stroke-linecap="round" stroke-linejoin="round"/>
<path d="M312.5 287.5C312.644 267.372 318.038 247.631 328.148 230.226C338.259 212.822 352.737 198.358 370.15 188.263L412.5 187.5C431.894 195.777 448.283 209.801 459.459 227.682C470.634 245.563 476.058 266.441 475 287.5H312.5Z" fill="#A9BA5A" stroke="#4C241D" stroke-width="25" stroke-linecap="round" stroke-linejoin="round"/>
<path d="M125 625V662.5" stroke="#4C241D" stroke-width="25" stroke-linecap="round" stroke-linejoin="round"/>
<path d="M650 625V662.5" stroke="#4C241D" stroke-width="25" stroke-linecap="round" stroke-linejoin="round"/>
<path d="M387.5 562.5C400.761 562.5 413.479 567.768 422.855 577.145C432.232 586.521 437.5 599.239 437.5 612.5V687.5H337.5V612.5C337.5 599.239 342.768 586.521 352.145 577.145C361.521 567.768 374.239 562.5 387.5 562.5Z" fill="#E7D1C4" stroke="#4C241D" stroke-width="25" stroke-linecap="round" stroke-linejoin="round"/>
<path d="M487.5 587.5C500.761 587.5 513.479 592.768 522.855 602.145C532.232 611.521 537.5 624.239 537.5 637.5V687.5H437.5V637.5C437.5 624.239 442.768 611.521 452.145 602.145C461.521 592.768 474.239 587.5 487.5 587.5Z" fill="#E7D1C4" stroke="#4C241D" stroke-width="25" stroke-linecap="round" stroke-linejoin="round"/>
<path d="M287.5 587.5C300.761 587.5 313.479 592.768 322.855 602.145C332.232 611.521 337.5 624.239 337.5 637.5V687.5H237.5V637.5C237.5 624.239 242.768 611.521 252.145 602.145C261.521 592.768 274.239 587.5 287.5 587.5Z" fill="#E7D1C4" stroke="#4C241D" stroke-width="25" stroke-linecap="round" stroke-linejoin="round"/>
<path d="M12.5 687.5H750" stroke="#4C241D" stroke-width="25" stroke-linecap="round" stroke-linejoin="round"/>
<path d="M393.75 100C398.723 100 403.492 101.975 407.008 105.492C410.525 109.008 412.5 113.777 412.5 118.75V187.5H375V118.75C375 113.777 376.975 109.008 380.492 105.492C384.008 101.975 388.777 100 393.75 100Z" fill="#E7D1C4" stroke="#4C241D" stroke-width="25" stroke-linecap="round" stroke-linejoin="round"/>
<path d="M375 150H412.5" stroke="#4C241D" stroke-width="25" stroke-linecap="round" stroke-linejoin="round"/>
<path d="M388.538 685.413V637.5" stroke="#4C241D" stroke-width="25" stroke-linecap="round" stroke-linejoin="round"/>
<path d="M488.537 685.413V637.5" stroke="#4C241D" stroke-width="25" stroke-linecap="round" stroke-linejoin="round"/>
<path d="M288.538 685.413V637.5" stroke="#4C241D" stroke-width="25" stroke-linecap="round" stroke-linejoin="round"/>
<path d="M87.5 550H187.5" stroke="#4C241D" stroke-width="25" stroke-linecap="round" stroke-linejoin="round"/>
</svg>
