<?xml version="1.0" encoding="iso-8859-1"?>
<!-- Uploaded to: SVG Repo, www.svgrepo.com, Generator: SVG Repo Mixer Tools -->
<svg height="800px" width="800px" version="1.1" id="Layer_1" xmlns="http://www.w3.org/2000/svg" xmlns:xlink="http://www.w3.org/1999/xlink" 
	 viewBox="0 0 512.193 512.193" xml:space="preserve">
<g>
	<path style="fill:#ED3F32;" d="M291.407,35.31h-70.621V17.655C220.786,7.901,228.687,0,238.442,0h35.31
		c9.754,0,17.655,7.901,17.655,17.655V35.31z"/>
	<path style="fill:#A35A2D;" d="M326.717,185.379H185.476c0-34.225,11.997-67.363,33.907-93.652
		c6.612-7.936,10.231-17.938,10.231-28.257V35.31h52.966v28.16c0,10.319,3.619,20.321,10.231,28.257
		C314.721,118.016,326.717,151.155,326.717,185.379"/>
	<polygon style="fill:#ED3F32;" points="185.475,308.966 326.717,308.966 326.717,185.379 185.475,185.379 	"/>
	<path style="fill:#A35A2D;" d="M326.717,308.966H185.476c0,12.138,8.828,44.138,8.828,79.448s-8.828,52.692-8.828,79.448
		c0,26.271,27.816,68.899,52.966,26.165c-0.415,12.12,8.686,18.061,17.655,17.973c8.969,0.088,18.07-5.853,17.655-17.973
		c25.15,42.734,52.966,0.106,52.966-26.165c0-26.756-8.828-44.138-8.828-79.448S326.717,321.103,326.717,308.966"/>
	<path style="fill:#FFFFFF;" d="M291.407,247.172c0-19.5-15.81-35.31-35.31-35.31c-19.5,0-35.31,15.81-35.31,35.31
		s15.81,35.31,35.31,35.31C275.597,282.483,291.407,266.673,291.407,247.172"/>
</g>
</svg>