<svg width="256" height="170" viewBox="0 0 256 170" fill="none" xmlns="http://www.w3.org/2000/svg">
<path fill-rule="evenodd" clip-rule="evenodd" d="M152.056 0.0211182C149.216 0.741637 146.843 2.18268 145.105 4.51377C143.369 6.84486 142.097 9.85409 141.46 13.8805C129.719 23.332 120.014 32.1054 111.707 40.3702C103.315 48.5502 100.391 55.4587 92.1258 63.2149C83.6915 70.8863 77.8002 71.3525 62.3726 86.8225C46.7754 102.377 26.4314 124.968 0.0264756 155.738L9.39322 169.979C21.3877 169.556 38.8497 168.411 62.754 166.717C86.7007 164.936 120.523 162.266 151.632 159.383C182.698 156.331 214.021 152.856 247.418 148.787C248.689 147.6 250.045 146.032 251.488 143.913C252.886 141.667 254.327 139.293 255.978 136.157C254.706 128.401 252.885 121.195 250.68 113.736C248.265 106.234 245.553 98.4779 242.542 92.1204C239.491 85.7205 236.228 81.9908 232.754 75.8452C229.109 69.5724 227.838 63.342 220.928 55.0349C213.765 46.5158 202.238 34.9451 190.752 25.7055C179.085 16.4247 166.464 8.03277 152.042 0.0222955L152.056 0.0211182Z" fill="black" stroke="black" stroke-width="0.0423835" stroke-miterlimit="10"/>
<path fill-rule="evenodd" clip-rule="evenodd" d="M3.67734 156.123C11.6454 156.971 22.9194 156.842 38.3046 155.742C53.7322 154.428 78.7809 150.232 94.9714 149.214C110.908 148.197 117.774 150.316 133.71 150.02C149.688 149.554 172.66 148.494 189.529 147.181C206.186 145.91 220.215 144.213 232.761 142.264C234.414 137.347 236.872 134.423 240.474 133.321C243.992 132.176 248.485 132.982 253.953 135.737L246.619 147.562C240.176 148.368 228.438 149.723 210.721 151.63C192.877 153.41 165.456 156.377 141.042 158.581C116.587 160.658 87.1728 162.565 65.2182 164.303C43.2211 165.87 25.2081 167.226 10.2044 168.372C8.03695 164.31 5.8754 160.237 3.67145 156.128L3.67734 156.123Z" fill="#EBC275" stroke="black" stroke-width="0.0423835" stroke-miterlimit="10"/>
<path fill-rule="evenodd" clip-rule="evenodd" d="M3.29471 154.086C9.31317 148.366 15.9674 141.371 24.0626 132.472C32.1155 123.444 41.7365 110.644 50.9761 101.107C60.0038 91.4858 70.854 81.6105 78.2711 75.4225C85.4763 69.1921 90.0113 68.5564 94.9702 64.0213C99.7595 59.3168 104.167 52.8745 108.024 48.1275C111.966 43.3382 112.602 41.3886 118.62 35.8787C124.681 30.3265 132.649 23.4604 143.499 15.1108C146.295 18.12 150.45 21.8074 156.131 26.512C161.851 31.0894 170.879 36.8535 177.322 42.8296C183.636 48.8904 188.765 56.4771 194.022 61.9869C199.149 67.2001 205.167 69.065 208.304 74.6172C211.355 80.2542 209.66 89.5786 212.374 95.3851C215.087 101.063 221.698 103.945 224.197 108.439C226.573 112.847 225.257 116.111 226.614 121.493C227.801 126.834 229.495 132.683 231.531 139.845C217.376 141.965 202.245 143.787 185.461 145.143C168.463 146.5 146.426 147.602 131.252 147.983C116.078 148.109 108.704 146.118 95.3952 146.754C81.8325 147.432 66.8287 150.78 51.3588 152.052C35.8876 153.276 20.0362 153.947 3.29354 154.077L3.29471 154.086Z" fill="#EBC275" stroke="black" stroke-width="0.0423835" stroke-miterlimit="10"/>
<path fill-rule="evenodd" clip-rule="evenodd" d="M154.093 2.86081C151.168 2.52174 148.795 3.45418 147.142 5.31905C145.448 7.14154 144.302 10.2355 143.88 14.262C147.481 16.9321 151.636 20.0685 156.509 23.6711C161.298 27.2737 167.997 31.724 172.827 35.8775C177.447 39.9464 181.303 43.9728 185.076 48.1264C188.762 52.1528 191.476 56.2216 195.672 60.3328C199.91 64.2321 207.199 66.8599 210.336 72.1578C213.302 77.4557 212.371 87.2039 213.598 91.739C214.658 96.0632 214.998 95.5111 217.245 98.266C219.533 100.98 225.084 104.284 227.034 108.014C228.814 111.532 226.737 114.923 227.841 119.839C228.898 124.714 230.511 130.562 233.139 137.386C233.307 132.936 235.13 130.349 238.437 129.63C241.785 128.909 246.572 129.884 253.142 132.892C251.743 121.957 249.286 112.294 245.767 103.563C242.122 94.7906 236.19 88.0504 231.909 80.7181C227.713 73.301 225.043 66.7739 220.126 59.5263C214.999 52.1516 210.758 45.4974 201.352 37.1055C191.687 28.4169 170.961 14.8542 163.036 9.00524C155.065 3.25168 152.145 1.25966 154.088 2.87023L154.093 2.86081Z" fill="#A16121" stroke="black" stroke-width="0.0423835" stroke-miterlimit="10"/>
<path fill-rule="evenodd" clip-rule="evenodd" d="M108.831 105.981C106.712 102.887 106.033 99.6658 106.796 95.8078C107.559 91.8237 109.466 86.1455 113.323 83.1775C117.138 80.0411 123.58 77.9643 129.217 78.261C134.726 78.6425 142.781 81.5245 146.34 85.5934C149.773 89.535 151.001 94.9177 150.026 101.911C145.407 100.385 141.592 99.7071 138.584 99.8754C135.489 99.9602 132.861 101.062 131.674 102.715C130.446 104.368 130.021 106.572 130.869 109.666C126.08 107.081 122.562 105.936 119.849 106.402C117.137 106.869 115.569 108.606 114.975 112.124C112.945 110.092 110.912 108.057 108.835 105.981H108.831Z" fill="black" stroke="black" stroke-width="0.0423835" stroke-miterlimit="10"/>
<path fill-rule="evenodd" clip-rule="evenodd" d="M109.636 103.564C108.322 100.683 107.941 97.7998 108.831 94.5787C109.636 91.2727 110.95 86.7377 114.553 84.4066C118.028 81.9908 124.47 79.7444 129.642 80.2954C134.769 80.7616 141.721 83.898 145.111 87.2463C148.332 90.5522 149.69 94.7058 149.181 99.8766C147.019 98.266 144.392 97.5031 141.466 97.4183C138.288 97.164 133.413 97.8422 131.252 99.4539C129.005 101.063 128.412 103.649 128.836 107.21C125.615 104.709 122.69 103.564 120.232 103.947C117.604 104.243 115.612 106.066 113.747 109.245C112.389 107.378 111.034 105.471 109.635 103.564H109.636Z" fill="#408000" stroke="black" stroke-width="0.0423835" stroke-miterlimit="10"/>
<path fill-rule="evenodd" clip-rule="evenodd" d="M161.427 103.945C161.681 107.294 162.867 112.592 166.3 116.577C169.607 120.476 174.863 125.477 181.389 127.173C187.958 128.741 200.631 129.164 205.039 125.986C209.109 122.511 209.191 113.227 206.269 107.633C203.174 101.955 194.062 94.833 187.111 92.9681C180.119 91.1032 168.887 94.6634 164.691 96.6143C160.311 98.3955 161.077 100.515 161.418 103.948L161.427 103.945Z" fill="black" stroke="black" stroke-width="0.0423835" stroke-miterlimit="10"/>
<path fill-rule="evenodd" clip-rule="evenodd" d="M162.828 104.03C163.04 107.336 164.185 111.998 167.407 115.898C170.585 119.5 175.375 124.289 181.604 125.858C187.708 127.299 199.744 127.68 203.814 124.713C207.756 121.406 207.713 112.761 205.001 107.463C201.991 102.081 193.515 95.5111 186.946 93.6462C180.292 91.9085 169.948 95.2992 165.88 97.1217C161.889 98.691 162.395 100.937 162.819 104.031L162.828 104.03Z" fill="white" stroke="black" stroke-width="0.0423835" stroke-miterlimit="10"/>
<path fill-rule="evenodd" clip-rule="evenodd" d="M43.6438 106.404C47.8821 109.243 52.9258 110.218 59.1138 109.667C65.2594 108.989 76.1943 106.996 80.3055 102.716C84.1624 98.3084 83.3995 88.6873 82.7637 83.9828C82.0432 79.3206 80.1783 76.1418 76.6605 74.616C66.8699 83.9404 59.3681 91.2727 53.8158 96.6131C48.306 101.869 44.9153 105.132 43.6438 106.404Z" fill="black" stroke="black" stroke-width="0.0423835" stroke-miterlimit="10"/>
<path fill-rule="evenodd" clip-rule="evenodd" d="M47.7126 106.404C50.2132 103.055 53.8158 99.0289 58.6899 94.156C63.5216 89.1971 69.4553 83.5601 76.6605 77.0755C78.9492 77.8807 80.4326 79.8304 81.1108 83.5601C81.7889 87.1627 82.4247 94.7494 80.7293 98.6486C78.7797 102.336 74.6685 104.286 70.5149 105.982C66.3189 107.55 60.0462 108.312 56.2741 108.44C52.4607 108.482 49.6634 107.802 47.7126 106.404Z" fill="#408000" stroke="black" stroke-width="0.0423835" stroke-miterlimit="10"/>
<path fill-rule="evenodd" clip-rule="evenodd" d="M136.551 65.2493C133.837 65.2917 137.653 73.2174 141.467 77.0743C145.241 80.9736 151.047 86.8649 158.548 88.0516C165.922 89.0264 181.604 84.7881 185.462 83.1775C188.978 81.4398 185.292 79.363 180.587 78.261C175.755 77.0319 165.202 78.261 157.742 76.2266C150.314 74.0227 139.211 65.0798 136.539 65.2493H136.551Z" fill="black" stroke="black" stroke-width="0.0423835" stroke-miterlimit="10"/>
<path fill-rule="evenodd" clip-rule="evenodd" d="M185.08 81.1431C182.028 82.6689 178.298 83.9404 174.059 84.7881C169.61 85.6357 164.185 87.3323 159.395 86.441C154.606 85.3826 149.053 82.2874 145.537 79.1087C141.89 75.9723 139.306 72.1578 137.781 67.6651C140.618 71.1406 143.714 74.1922 147.569 76.6504C151.258 79.1511 153.886 81.4398 160.201 82.3722C166.523 83.1351 174.658 82.6689 185.089 81.1431H185.08Z" fill="#61A121" stroke="black" stroke-width="0.0423835" stroke-miterlimit="10"/>
<path fill-rule="evenodd" clip-rule="evenodd" d="M140.236 68.089C143.751 71.0134 147.355 73.2598 151.211 74.9975C154.94 76.6504 158.12 77.4133 163.037 78.261C167.912 79.0239 173.759 79.5749 180.584 79.914C175.835 80.6769 171.43 81.1431 167.529 81.1431C163.588 81.2279 160.875 81.3126 156.934 79.914C152.738 78.1762 145.829 73.8108 143.075 71.734C140.32 69.6572 139.261 68.5976 140.238 68.089H140.236Z" fill="#80FF00" stroke="black" stroke-width="0.0423835" stroke-miterlimit="10"/>
<path fill-rule="evenodd" clip-rule="evenodd" d="M105.567 116.194C102.855 119.457 100.354 121.407 98.2349 121.874C95.9885 122.296 93.4879 121.407 92.5555 119.034C91.4535 116.533 90.6906 112.294 92.5555 107.632C94.5051 102.843 98.1501 97.4172 103.957 90.8901L103.151 84.7869C94.1661 89.11 88.4019 93.9841 85.1808 99.8754C82.0444 105.683 82.9768 114.667 84.3755 119.457C85.6046 124.078 89.7582 126.281 92.9369 128.018C96.0733 129.756 100.947 131.493 103.151 129.629C105.312 127.674 105.947 123.142 105.567 116.19V116.194Z" fill="black" stroke="black" stroke-width="0.0423835" stroke-miterlimit="10"/>
<path fill-rule="evenodd" clip-rule="evenodd" d="M103.533 121.875C103.957 124.969 103.745 127.299 102.728 128.402C101.626 129.334 99.6335 129.631 97.4296 128.825C95.0137 127.934 91.835 126.112 89.6734 124.333C87.5966 122.511 86.1556 121.197 85.1808 118.611C84.2059 116.026 83.8669 112.72 83.994 108.863C84.2483 113.271 85.3079 116.875 87.639 119.84C89.8006 122.68 94.7594 125.945 97.4296 126.367C100.056 126.768 102.091 125.155 103.533 121.894V121.875Z" fill="#408000" stroke="black" stroke-width="0.0423835" stroke-miterlimit="10"/>
<path fill-rule="evenodd" clip-rule="evenodd" d="M103.533 119.414L103.406 121.32C102.516 123.016 101.583 124.288 100.439 124.966C99.2097 125.686 98.3196 126.025 96.4548 125.348C94.4204 124.373 90.7754 122.169 88.9529 120.05C87.1728 117.761 85.9437 115.303 85.4351 112.674C84.6722 110.004 83.9093 107.25 84.7993 104.409C85.5198 101.358 87.1728 97.8822 90.0972 94.9578C93.0217 91.9909 96.8786 89.236 102.134 86.693L102.897 91.0585C100.015 93.8558 97.5567 96.8226 95.5223 100.127C93.2336 103.306 91.1144 107.078 90.4787 110.469C89.8429 113.776 90.9873 118.352 92.3012 120.429C93.5727 122.379 96.1581 122.93 98.1077 122.76C100.014 122.642 101.71 121.406 103.533 119.417V119.414Z" fill="#80FF00" stroke="black" stroke-width="0.0423835" stroke-miterlimit="10"/>
<path fill-rule="evenodd" clip-rule="evenodd" d="M37.1167 123.523C45.212 127.38 51.9086 131.322 57.8846 135.348C63.8183 139.333 68.3534 143.402 72.1679 147.554L79.8817 137.765C73.4818 130.517 67.1666 125.22 60.7667 121.871C54.282 118.438 48.0517 116.954 41.567 117.421C40.0836 119.458 38.6013 121.495 37.1167 123.52V123.523Z" fill="black" stroke="black" stroke-width="0.0423835" stroke-miterlimit="10"/>
<path fill-rule="evenodd" clip-rule="evenodd" d="M38.8556 123.405C42.3735 125.27 45.6794 126.922 48.9429 128.829C52.1217 130.61 53.9865 131.289 57.9706 134.298C61.7851 137.18 66.5744 141.164 72.169 146.249L73.3558 144.639C68.9903 140.147 64.5824 136.417 59.9626 133.111C55.2157 129.762 49.07 126.796 45.637 125.016C42.2039 123.109 40.1271 122.134 39.4066 122.091C39.2371 122.503 39.0675 122.927 38.8556 123.398V123.405Z" fill="#80FF00" stroke="black" stroke-width="0.0423835" stroke-miterlimit="10"/>
<path fill-rule="evenodd" clip-rule="evenodd" d="M40.1695 120.603L42.4158 118.229C48.4767 118.822 53.7322 120.01 58.352 121.958C62.9294 123.908 66.6168 127.002 70.0499 129.757C73.3982 132.428 76.0259 135.014 78.2723 137.852L73.6101 143.957C69.7108 139.294 65.5148 135.522 61.0222 132.174C56.2752 128.741 50.0025 126.027 46.4423 124.205C42.9244 122.382 40.89 121.492 40.1695 121.535V120.603Z" fill="#408000" stroke="black" stroke-width="0.0423835" stroke-miterlimit="10"/>
<path fill-rule="evenodd" clip-rule="evenodd" d="M156.506 143.149C157.906 144.378 160.024 138.742 160.407 134.928C160.577 131.027 160.915 125.01 157.992 120.644C154.897 116.152 145.106 109.921 142.521 108.819C139.807 107.632 140.656 110.684 142.309 113.736C143.834 116.745 149.725 121.661 152.142 126.705C154.485 131.532 155.121 141.704 156.51 143.141L156.506 143.149Z" fill="black" stroke="black" stroke-width="0.0423835" stroke-miterlimit="10"/>
<path fill-rule="evenodd" clip-rule="evenodd" d="M141.672 110.006C144.003 110.812 146.251 112.21 148.878 114.033C151.421 115.813 154.811 118.017 156.761 120.984C158.499 123.907 159.474 128.272 159.515 131.791C159.559 135.14 158.796 138.318 157.228 141.328C157.651 138.108 157.821 135.014 157.269 131.877C156.676 128.614 156.804 126.198 154.218 122.511C151.545 118.837 147.483 114.724 141.667 110.018L141.672 110.006Z" fill="#80FF00" stroke="black" stroke-width="0.0423835" stroke-miterlimit="10"/>
<path fill-rule="evenodd" clip-rule="evenodd" d="M156.259 139.841C156.004 136.578 155.622 133.483 154.647 130.728C153.675 127.847 152.57 125.854 150.706 122.972C148.756 119.963 146.298 116.616 143.161 112.927C145.875 115.005 148.121 117.167 150.071 119.242C151.851 121.319 153.378 122.379 154.479 125.388C155.495 128.27 156.556 134.078 156.852 136.578C157.159 139.051 156.899 140.028 156.264 139.851L156.259 139.841Z" fill="#408000" stroke="black" stroke-width="0.0423835" stroke-miterlimit="10"/>
<path fill-rule="evenodd" clip-rule="evenodd" d="M162.828 104.03C163.04 107.336 164.185 111.998 167.407 115.898C170.585 119.5 175.375 124.289 181.604 125.858C187.708 127.299 199.744 127.68 203.814 124.713C207.756 121.406 207.713 112.761 205.001 107.463C201.991 102.081 193.515 95.5111 186.946 93.6462C180.292 91.9085 169.948 95.2992 165.88 97.1217C161.889 98.691 162.395 100.937 162.819 104.031L162.828 104.03Z" fill="#408000" stroke="black" stroke-width="0.0423835" stroke-miterlimit="10"/>
<path fill-rule="evenodd" clip-rule="evenodd" d="M124.978 39.4378C125.19 42.2351 126.207 46.8549 129.174 50.2032C132.099 53.5515 136.379 57.705 142.017 59.2308C147.696 60.5871 158.333 60.8414 162.149 58.1713C165.582 55.2892 165.708 47.1939 163.209 42.5317C160.622 37.6576 152.739 31.6392 146.89 30.0286C140.957 28.4604 131.378 31.4697 127.776 33.165C124.103 34.606 124.692 36.6404 124.986 39.4378H124.978Z" fill="black" stroke="black" stroke-width="0.0423835" stroke-miterlimit="10"/>
<path fill-rule="evenodd" clip-rule="evenodd" d="M126.167 39.4801C126.294 42.1927 127.438 46.3886 130.107 49.6098C132.821 52.7462 136.847 56.7726 142.187 58.0865C147.273 59.2732 157.784 59.6547 161.134 57.1117C164.439 54.3991 164.439 46.7701 162.109 42.4046C159.523 37.9119 152.445 32.1478 146.765 30.6644C141.086 29.2657 132.269 31.9359 128.795 33.5888C125.263 35.0299 125.863 36.7252 126.157 39.4801H126.167Z" fill="#408000" stroke="black" stroke-width="0.0423835" stroke-miterlimit="10"/>
<path fill-rule="evenodd" clip-rule="evenodd" d="M147.359 37.361C140.111 40.3278 133.752 42.2774 127.777 43.8456C121.759 45.2867 116.461 45.9224 111.714 45.9224L113.494 56.5183C121.759 56.4759 128.837 55.6706 134.727 53.4667C140.618 51.3051 145.155 48.1264 148.674 43.7609C148.238 41.6417 147.826 39.5225 147.355 37.361H147.359Z" fill="black" stroke="black" stroke-width="0.0423835" stroke-miterlimit="10"/>
<path fill-rule="evenodd" clip-rule="evenodd" d="M146.428 38.5477C143.164 39.6921 140.112 40.9636 137.104 41.896C134.009 42.7437 132.484 43.7185 128.414 44.4814C124.261 45.2019 119.09 46.0496 112.563 46.6853L112.86 48.3807C118.2 48.1687 123.201 47.533 128.033 46.4734C132.737 45.2019 138.246 43.2099 141.468 41.9808C144.605 40.794 146.428 40.0311 146.937 39.6921C146.76 39.3106 146.596 38.9292 146.431 38.5477H146.428Z" fill="#80FF00" stroke="black" stroke-width="0.0423835" stroke-miterlimit="10"/>
<path fill-rule="evenodd" clip-rule="evenodd" d="M147.441 41.0483L147.653 43.8456C143.711 47.4058 140.024 50.0336 136.082 51.8985C132.056 53.721 127.902 54.1448 124.301 54.823C120.656 55.4587 117.35 55.5011 114.383 55.4163L113.154 48.9317C118.325 49.1436 123.156 48.6774 127.988 47.7025C132.735 46.6006 138.288 44.1423 141.551 42.9556C144.646 41.8112 146.467 40.8364 146.849 40.4973C147.025 40.6669 147.237 40.8364 147.449 41.0483H147.441Z" fill="#408000" stroke="black" stroke-width="0.0423835" stroke-miterlimit="10"/>
<path fill-rule="evenodd" clip-rule="evenodd" d="M105.651 73.4293C103.574 74.5737 101.752 74.7856 99.7171 74.0651C97.6827 73.2174 93.6139 71.7763 93.741 69.0638C93.6563 66.3089 95.4788 59.0613 100.014 57.7898C104.549 56.3488 117.094 58.6375 120.994 61.2229C124.723 63.7659 124.257 71.2254 122.858 73.1326C121.417 74.9551 117.984 74.5737 112.559 72.1578C111.584 73.4293 111.415 74.7432 112.22 76.5657C112.941 78.3458 114.509 80.1683 116.925 82.4994C115.738 84.5762 114.17 85.9324 111.584 86.5682C109.041 87.1615 105.863 86.9072 101.879 85.9748C102.091 83.3894 102.514 81.1431 103.15 79.0663C103.702 76.9047 104.591 75.0823 105.651 73.4293Z" fill="black" stroke="black" stroke-width="0.0423835" stroke-miterlimit="10"/>
<path fill-rule="evenodd" clip-rule="evenodd" d="M115.866 82.6265C114.044 83.6861 112.349 84.1947 110.145 84.3219C108.025 84.3642 105.61 84.0252 103.067 83.1351L102.643 85.5934C104.296 86.016 105.737 86.2291 107.305 86.3998C108.788 86.441 110.229 86.4834 111.628 86.1867C112.815 85.7629 114.341 84.9576 115.061 84.4066C115.697 83.7709 116.077 83.1775 115.866 82.6265Z" fill="#948547" stroke="black" stroke-width="0.0423835" stroke-miterlimit="10"/>
<path fill-rule="evenodd" clip-rule="evenodd" d="M94.7583 67.1989C94.3344 68.3009 94.4192 69.2333 94.5463 69.9962C94.6311 70.6744 95.2245 71.183 95.8602 71.6916C96.5384 72.1578 97.386 72.7088 98.5728 73.175C99.6323 73.5565 100.861 73.9379 102.26 73.9803C103.404 73.8531 104.634 73.4293 105.778 72.7088L105.99 71.7763C104.379 72.2849 102.853 72.5816 101.582 72.6664C100.226 72.7512 99.1237 72.3697 98.1065 71.9883C97.047 71.3949 96.1569 70.632 95.4364 69.53C95.2245 68.7671 95.0137 68.0042 94.7583 67.1989Z" fill="#948547" stroke="black" stroke-width="0.0423835" stroke-miterlimit="10"/>
<path fill-rule="evenodd" clip-rule="evenodd" d="M112.814 71.6916C114.212 72.3273 115.441 72.9631 116.671 73.2598C117.772 73.5141 119.129 73.7684 120.104 73.6836C121.078 73.5141 121.714 73.0055 122.35 72.3273C120.358 72.4969 118.705 72.4545 117.221 72.2002C115.653 71.9459 114.594 71.2254 113.577 70.5048C113.32 70.8863 113.067 71.2677 112.811 71.6916H112.814Z" fill="#948547" stroke="black" stroke-width="0.0423835" stroke-miterlimit="10"/>
<path fill-rule="evenodd" clip-rule="evenodd" d="M115.484 82.3298C114.212 81.0159 113.153 79.7868 112.475 78.4729C111.627 77.1167 110.906 75.718 111.118 74.277C111.203 72.7935 112.178 71.3101 113.577 69.6572C114.043 70.3777 114.975 70.9287 116.543 71.3101C118.112 71.6916 120.104 71.8611 122.858 71.9883C123.282 70.9287 123.537 69.9962 123.452 68.5552C123.24 67.0294 123.664 65.2917 122.265 63.8083C120.782 62.2401 118.535 60.8414 115.06 59.9514C111.457 59.0613 104.973 57.7474 101.667 58.4679C98.3185 59.1037 96.8774 61.8162 95.8602 63.6387C94.8006 65.2917 95.394 67.0718 95.8602 68.4704C96.2417 69.7843 97.0893 70.6744 98.4032 71.3101C99.6324 71.8187 101.54 71.8187 103.15 71.8187C104.676 71.6492 106.032 71.3101 107.389 70.632C107.134 70.9711 106.583 71.9459 105.905 74.0651C105.227 76.0571 104.252 78.8544 103.15 82.6265C105.397 83.3894 107.558 83.898 109.635 83.8133C111.677 83.6861 113.626 83.3047 115.491 82.3298H115.484Z" fill="#D9BC87" stroke="black" stroke-width="0.0423835" stroke-miterlimit="10"/>
<path fill-rule="evenodd" clip-rule="evenodd" d="M121.881 137.133C122.093 139.888 121.246 141.88 119.508 143.745C117.558 145.396 113.998 148.872 111.116 147.474C108.149 145.906 101.495 140.566 102.427 135.055C103.445 129.46 112.006 117.296 116.838 114.584C121.415 111.871 129.171 116.194 130.443 118.737C131.671 121.238 129.509 124.501 124.128 129.162C124.891 130.858 126.374 131.579 128.578 131.79C130.825 131.96 133.622 131.154 137.31 129.841C138.963 132.002 139.598 134.587 138.878 137.597C138.115 140.565 136.292 143.827 133.24 147.557C130.615 145.989 128.452 144.42 126.587 142.683C124.68 140.858 123.114 139.163 121.878 137.126L121.881 137.133Z" fill="black" stroke="black" stroke-width="0.0423835" stroke-miterlimit="10"/>
<path fill-rule="evenodd" clip-rule="evenodd" d="M136.892 131.034C137.106 133.409 136.724 135.571 135.749 137.985C134.689 140.232 133.121 142.52 130.874 144.851L133.247 146.589C134.519 145.106 135.664 143.537 136.512 142.054C137.272 140.316 138.206 138.96 138.503 137.349C138.799 135.697 138.587 133.916 138.377 132.814C138.118 131.755 137.564 131.154 136.893 131.037L136.892 131.034Z" fill="#948547" stroke="black" stroke-width="0.0423835" stroke-miterlimit="10"/>
<path fill-rule="evenodd" clip-rule="evenodd" d="M109.72 145.48C110.694 146.37 111.627 146.921 112.517 147.133C113.322 147.259 114.043 146.92 115.018 146.581C115.865 146.072 116.967 145.436 117.984 144.504C118.959 143.487 120.104 142.258 120.739 140.986C121.333 139.631 121.333 138.189 121.206 136.663L120.315 135.901C120.061 137.892 119.68 139.546 119.002 141.029C118.323 142.427 117.476 143.487 116.459 144.377C115.357 145.183 114.043 145.648 112.517 145.945C111.589 145.839 110.657 145.674 109.724 145.498L109.72 145.48Z" fill="#948547" stroke="black" stroke-width="0.0423835" stroke-miterlimit="10"/>
<path fill-rule="evenodd" clip-rule="evenodd" d="M123.753 128.609C125.279 127.549 126.339 126.405 127.398 125.347C128.415 124.201 129.094 123.016 129.602 121.955C129.858 120.853 129.773 119.836 129.349 118.903C128.501 121.022 127.569 122.804 126.552 124.244C125.407 125.642 124.178 126.575 122.864 127.212C123.159 127.671 123.453 128.142 123.759 128.601L123.753 128.609Z" fill="#948547" stroke="black" stroke-width="0.0423835" stroke-miterlimit="10"/>
<path fill-rule="evenodd" clip-rule="evenodd" d="M136.374 131.282C134.383 132.043 132.432 132.34 130.695 132.511C128.789 132.552 127.093 132.637 125.61 131.79C124.211 130.815 122.855 129.205 122.007 126.789C122.94 126.704 124.084 125.941 125.271 124.5C126.415 123.059 127.729 120.941 129.212 118.144C128.45 117.084 127.348 116.405 125.907 115.769C124.381 115.091 122.431 113.821 120.227 114.582C117.854 115.218 115.141 117.041 112.429 120.219C109.589 123.398 104.969 129.841 103.952 133.655C102.935 137.385 105.096 140.479 106.495 142.471C107.851 144.293 109.886 144.674 111.623 144.929C113.149 145.099 114.633 144.758 115.904 143.742C117.006 142.639 118.278 140.606 118.913 138.953C119.591 137.3 119.846 135.605 119.846 133.867C120.015 134.248 120.905 135.35 122.685 137.174C124.466 138.912 126.966 141.412 130.357 144.506C132.348 142.472 133.875 140.438 134.935 138.234C135.96 135.95 136.372 133.795 136.372 131.287L136.374 131.282Z" fill="#CCB894" stroke="black" stroke-width="0.0423835" stroke-miterlimit="10"/>
<path fill-rule="evenodd" clip-rule="evenodd" d="M208.685 117.255C211.399 118.06 213.348 119.754 214.364 122.171C215.339 124.63 217.416 129.46 214.873 131.919C212.162 134.207 204.362 138.785 199.15 135.861C193.937 132.767 185.292 119.332 184.316 113.695C183.426 107.888 190.545 101.996 193.597 101.743C196.436 101.531 199.109 104.753 201.608 112.042C203.473 111.83 204.956 110.728 205.89 108.566C206.865 106.279 207.289 103.353 207.33 99.1584C210.213 98.2672 212.925 98.7346 215.638 100.557C218.393 102.337 220.765 105.474 223.394 109.966C220.851 111.916 218.437 113.442 215.979 114.713C213.494 115.898 211.116 116.745 208.703 117.255H208.685Z" fill="black" stroke="black" stroke-width="0.0423835" stroke-miterlimit="10"/>
<path fill-rule="evenodd" clip-rule="evenodd" d="M208.344 100.004C210.802 100.597 212.793 101.869 214.785 103.818C216.693 105.641 218.303 108.184 219.786 111.278L222.414 109.582C221.398 107.718 220.296 106.065 219.109 104.624C217.92 103.098 216.566 101.784 215.209 100.851C213.725 99.919 211.775 99.3256 210.674 99.2408C209.484 99.0713 208.766 99.3256 208.342 100.004H208.344Z" fill="#948547" stroke="black" stroke-width="0.0423835" stroke-miterlimit="10"/>
<path fill-rule="evenodd" clip-rule="evenodd" d="M212.335 132.6C213.524 131.922 214.581 131.202 215.048 130.439C215.471 129.591 215.557 128.744 215.471 127.726C215.345 126.582 215.092 125.225 214.54 123.996C214.031 122.598 213.056 120.902 212.082 119.885C210.98 118.826 209.539 118.063 207.929 117.766L206.87 118.402C208.734 119.334 210.259 120.478 211.446 121.664C212.55 122.852 213.395 123.953 213.822 125.436C214.118 126.792 214.287 128.318 213.863 130.015C213.333 130.862 212.827 131.71 212.321 132.605L212.335 132.6Z" fill="#948547" stroke="black" stroke-width="0.0423835" stroke-miterlimit="10"/>
<path fill-rule="evenodd" clip-rule="evenodd" d="M200.927 112.211C200.377 110.346 199.74 108.651 199.02 107.294C198.299 105.768 197.409 104.539 196.519 103.777C195.587 103.014 194.485 102.717 193.382 102.887C195.162 104.455 196.689 106.065 197.623 107.719C198.513 109.287 199.148 110.897 199.191 112.55C199.733 112.464 200.333 112.337 200.922 112.211H200.927Z" fill="#948547" stroke="black" stroke-width="0.0423835" stroke-miterlimit="10"/>
<path fill-rule="evenodd" clip-rule="evenodd" d="M208.391 100.639C208.306 102.969 208.053 104.793 207.459 106.743C206.781 108.524 206.273 110.346 204.789 111.532C203.262 112.507 201.142 113.226 198.432 113.226C198.685 112.168 198.347 110.853 197.413 109.116C196.397 107.335 194.788 105.216 192.582 102.759C191.225 103.013 190.123 103.861 188.937 105.132C187.624 106.32 185.8 107.718 185.588 110.304C185.376 112.931 186.097 116.068 188.216 120.222C190.419 124.163 194.827 131.199 198.346 133.785C201.694 136.159 205.593 135.141 208.093 134.633C210.383 133.998 211.654 131.962 212.544 130.48C213.35 128.869 213.434 127.343 212.967 125.733C212.374 124.039 210.679 122.216 209.363 120.945C208.007 119.588 206.312 118.741 204.617 118.063C205.04 118.02 206.567 117.554 209.025 116.494C211.44 115.308 214.788 113.867 219.24 111.663C218.053 108.824 216.57 106.578 214.788 104.755C212.963 102.846 210.88 101.532 208.384 100.642L208.391 100.639Z" fill="#EBC275" stroke="black" stroke-width="0.0423835" stroke-miterlimit="10"/>
</svg>
