<svg width="354" height="785" viewBox="0 0 354 785" fill="none" xmlns="http://www.w3.org/2000/svg">
<path d="M281.573 464.425V105.333C281.573 47.1594 235.061 0 176.886 0C118.711 0 72.1984 47.1594 72.1984 105.334V464.428C28.4484 496.708 0 548.509 0 606.917C0 704.778 79.1625 784.109 177.022 784.109C274.881 784.109 353.823 704.775 353.823 606.916C353.823 548.506 325.323 496.705 281.573 464.425Z" fill="#C4F0F2"/>
<path d="M251.886 513.341V262.5H101.886V513.341C73.7609 535.353 56.8953 569.081 56.8953 606.914C56.8953 673.239 110.594 727.006 176.919 727.006C243.244 727.006 296.875 673.239 296.875 606.914C296.877 569.081 280.011 535.353 251.886 513.341Z" fill="#FF473E"/>
<path d="M177.053 280.2C218.606 280.2 252.291 272.431 252.291 262.847C252.291 253.263 218.606 245.494 177.053 245.494C135.501 245.494 101.816 253.263 101.816 262.847C101.816 272.431 135.501 280.2 177.053 280.2Z" fill="#FF6E83"/>
<path d="M152.689 135.938C152.689 140.092 149.32 143.75 145.166 143.75H72.1984V128.125H145.167C149.322 128.125 152.689 131.783 152.689 135.938ZM145.167 221.875H72.1984V237.5H145.167C149.322 237.5 152.691 233.842 152.691 229.688C152.689 225.533 149.322 221.875 145.167 221.875ZM145.167 315.625H72.1984V331.25H145.167C149.322 331.25 152.691 327.592 152.691 323.438C152.689 319.283 149.322 315.625 145.167 315.625ZM145.636 410.15V409.375H72.1984V425H145.636V425.195C148.761 425.195 153.159 421.827 153.159 417.672C153.159 413.517 148.761 410.15 145.636 410.15Z" fill="#597B91"/>
</svg>
