<svg width="467" height="667" viewBox="0 0 467 667" fill="none" xmlns="http://www.w3.org/2000/svg">
<path d="M233.333 0C104.467 0 0 104.483 0 233.333C0 362.2 233.333 666.667 233.333 666.667C233.333 666.667 466.667 362.2 466.667 233.333C466.667 104.483 362.2 0 233.333 0ZM233.333 350C202.391 350 172.717 337.708 150.838 315.829C128.958 293.95 116.667 264.275 116.667 233.333C116.667 202.391 128.958 172.717 150.838 150.838C172.717 128.958 202.391 116.667 233.333 116.667C264.275 116.667 293.95 128.958 315.829 150.838C337.708 172.717 350 202.391 350 233.333C350 264.275 337.708 293.95 315.829 315.829C293.95 337.708 264.275 350 233.333 350Z" fill="#FF3D00"/>
</svg>
